<svg xmlns="http://www.w3.org/2000/svg" xmlns:xlink="http://www.w3.org/1999/xlink" id="Capa_1" x="0" y="0" enable-background="new 0 0 101 101" version="1.1" viewBox="0 0 101 101" xml:space="preserve"><style type="text/css">.st0{fill:#fff}.st26{fill:#f15a29}</style><circle cx="50.1" cy="50.2" r="50.2" class="st0"/><g><path d="M73.8,26.4h-1.3v-1.2c0-2.6-2.1-4.8-4.8-4.8H33.3c-2.6,0-4.8,2.1-4.8,4.8v1.2h-1.3c-1.6,0-2.9,1.3-2.9,2.9 v13.8c0,1.6,1.3,2.9,2.9,2.9h1.3v24.5c0,2.2,1.5,4,3.5,4.6v4.1c0,0.8,0.6,1.4,1.4,1.4h5.8c0.8,0,1.4-0.6,1.4-1.4v-3.9h20v3.9 c0,0.8,0.6,1.4,1.4,1.4h5.8c0.8,0,1.4-0.6,1.4-1.4V75c2-0.6,3.5-2.4,3.5-4.6V45.9h1.3c1.6,0,2.9-1.3,2.9-2.9V29.3 C76.6,27.7,75.3,26.4,73.8,26.4L73.8,26.4z M34.4,28.9h32.2v17.6H34.4V28.9z M39.7,68.8c-2.8,0-5-2.2-5-5c0-2.8,2.2-5,5-5 c2.8,0,5,2.2,5,5C44.7,66.6,42.5,68.8,39.7,68.8L39.7,68.8z M56.3,63.9c0-2.8,2.2-5,5-5c2.8,0,5,2.2,5,5c0,2.8-2.2,5-5,5 C58.5,68.8,56.3,66.6,56.3,63.9L56.3,63.9z M56.3,63.9" class="st26"/></g></svg>