<svg xmlns="http://www.w3.org/2000/svg" xmlns:xlink="http://www.w3.org/1999/xlink" id="Capa_1" x="0" y="0" enable-background="new 0 0 101 101" version="1.1" viewBox="0 0 101 101" xml:space="preserve"><style type="text/css">.st0{fill:#fff}.st34{fill:#443c86}</style><circle cx="50.5" cy="50.5" r="50.2" class="st34"/><g><path d="M67.4,32.1c-3.7-6.1-9.8-10.5-17.3-11.5c-13.4-1.9-24.6,8.2-27.8,21.9c-4,17.4,0.5,23.4,8.9,23.7 c1.6-1.4,3.5-2.5,5.6-3.1L67.4,32.1z M42.7,31c0.5-3.3,3.5-5.6,6.8-5.1c3.3,0.5,5.6,3.5,5.1,6.8c-0.5,3.3-3.5,5.6-6.8,5.1 C44.5,37.3,42.2,34.3,42.7,31L42.7,31z M30.3,37.5c0.3-2.4,2.6-4.1,5-3.8c2.4,0.3,4.1,2.6,3.8,5c-0.3,2.4-2.6,4.1-5,3.8 C31.6,42.2,29.9,39.9,30.3,37.5L30.3,37.5z M31.5,57.4c-2.4-0.3-4.1-2.6-3.8-5c0.3-2.4,2.6-4.1,5-3.8c2.4,0.3,4.1,2.6,3.8,5 C36.2,56.1,34,57.8,31.5,57.4L31.5,57.4z M31.5,57.4" class="st0"/><path d="M56.9,60.7l0.6-0.8l22.6-29.4c0-0.5-0.3-1.2-1.2-1.9c-1.7-1.5-2.8-0.8-2.8-0.8L49.9,53.1l-0.7,0.6L56.9,60.7z M56.9,60.7" class="st0"/><path d="M47.8,70.7l0.6-0.7l7.1-7.9l-7.7-6.9l-7,7.8l-0.7,0.7L47.8,70.7z M43.6,62.7l3.5-4c0.3-0.4,0.9-0.4,1.3-0.1 l0.5,0.4c0.2,0.2,0.3,0.4,0.3,0.6c0,0.2-0.1,0.5-0.2,0.6l-3.5,4c-0.3,0.4-0.9,0.4-1.2,0.1l-0.5-0.4c-0.2-0.2-0.3-0.4-0.3-0.6 C43.4,63.1,43.5,62.9,43.6,62.7L43.6,62.7z M43.6,62.7" class="st0"/><path d="M45.8,72.8L45.8,72.8c0,0,0.4-0.6,0.5-0.8l-7.2-6.5c-0.2,0-0.3,0.1-0.5,0.1c0,0,0,0,0,0 c-5.8,1.4-11.5,7.6-5.8,14.6c0.3,0.3,0.7,0.5,1.1,0.4c0.4-0.1,0.7-0.4,0.8-0.8c0.2-0.9,0.5-1.9,1.3-2.7 C37.7,75.4,42.6,78.1,45.8,72.8L45.8,72.8z M38.8,74.6c-1.4,0.1-2.9,0.1-4.1,1.2c-0.2,0.2-0.4,0.4-0.6,0.7 c-0.2,0.3-0.5,0.4-0.9,0.3c-0.3-0.1-0.6-0.3-0.7-0.6c-0.3-1-0.4-2.1-0.1-3.2c0.2-0.6,0.5-1.2,0.9-1.8c1.5,1.6,2.7,2.5,5.1,2.3 c1.5-0.1,2.8-0.1,4.1,0.3C41.4,74.5,40.1,74.5,38.8,74.6L38.8,74.6z M38.8,74.6" class="st0"/></g></svg>