<svg xmlns="http://www.w3.org/2000/svg" xmlns:xlink="http://www.w3.org/1999/xlink" id="Capa_1" x="0" y="0" enable-background="new 0 0 101 101" version="1.1" viewBox="0 0 101 101" xml:space="preserve"><style type="text/css">.st0{fill:#fff}.st23{fill:none}.st27{fill:#fbb040}</style><circle cx="50.5" cy="50.5" r="50.2" class="st0"/><path d="M71.1,35.3C72.6,62,50.5,74.6,50.5,74.6v0.2c0,0-22.1-12.6-20.6-39.3c11.6-2.3,20.6-9.1,20.6-9.1l0.2-0.2	C50.7,26.2,59.4,33,71.1,35.3L71.1,35.3z M51.1,79.8c0,0-0.1,0-0.1,0.1c-0.2,0.1-0.4,0.1-0.5,0.1c-0.2,0-0.4,0-0.5-0.1	c-0.3-0.2-6.7-3.9-13-11.5c-5.8-7.1-12.5-19-11.6-35.4c0-0.5,0.4-0.9,0.8-1c13.1-2.6,23.2-10.1,23.6-10.4c0,0,0,0,0.1,0l0.3-0.2	c0.4-0.3,0.9-0.2,1.2,0c0.1,0.1,10.2,7.8,23.4,10.4c0.5,0.1,0.8,0.5,0.9,1C77.4,63.9,53.2,78.6,51.1,79.8L51.1,79.8z M73.6,33.6	C62,31.1,53.1,25.1,50.7,23.4c-1.9,1.4-11.3,7.8-23.3,10.4c-1.1,27.2,19.4,41.6,23,43.9C53.9,75.5,74.7,61.4,73.6,33.6L73.6,33.6z M73.6,33.6" class="st27"/><rect width="55.9" height="65" x="-38" y="10" class="st23"/></svg>