<svg xmlns="http://www.w3.org/2000/svg" xmlns:xlink="http://www.w3.org/1999/xlink" id="Capa_1" x="0" y="0" enable-background="new 0 0 101 101" version="1.1" viewBox="0 0 101 101" xml:space="preserve"><style type="text/css">.st0{fill:#fff}.st32{fill:#287daa}</style><circle cx="50.5" cy="50.5" r="50.2" class="st32"/><path d="M84.4,55l-0.2-0.2c-0.1-0.1-0.2-0.2-0.3-0.3L67.5,38.2c0,0-0.1-0.1-0.1-0.1c-0.8-0.7-1.8-1.2-2.8-1.5v-4	c0-1-0.8-1.8-1.8-1.8h-8c-1,0-1.8,0.8-1.8,1.8v3.7H19.2c-2.9,0-5.2,2.3-5.2,5.2v31.1c0,1,0.8,1.8,1.8,1.8h4.6	c0.8,3.5,3.9,6.1,7.7,6.1s6.9-2.6,7.7-6.1h30.1c0.8,3.5,3.9,6.1,7.7,6.1c3.7,0,6.9-2.6,7.7-6.1c3.2-0.1,5.8-2.8,5.8-6V61	C87,58.8,86,56.6,84.4,55L84.4,55z M56.6,34.4h4.5v2h-4.5V34.4z M28,77c-2.4,0-4.3-2-4.3-4.3c0-2.4,2-4.3,4.3-4.3s4.3,2,4.3,4.3	C32.4,75.1,30.4,77,28,77L28,77z M37.1,51.8c0,1-0.8,1.8-1.8,1.8h-2.9v2.9c0,1-0.8,1.8-1.8,1.8h-3.4c-1,0-1.8-0.8-1.8-1.8v-2.9h-2.9	c-1,0-1.8-0.8-1.8-1.8v-3.4c0-1,0.8-1.8,1.8-1.8h2.9v-2.9c0-1,0.8-1.8,1.8-1.8h3.4c1,0,1.8,0.8,1.8,1.8v2.9h2.9c1,0,1.8,0.8,1.8,1.8	V51.8z M58.5,53.5c-0.9,0-1.5-0.7-1.5-1.5v-8.3c0-0.5,0.4-0.9,0.9-0.9h5.5c0.5,0,1.1,0.2,1.4,0.6l8.5,8.5c0.4,0.4,0.3,0.9,0.2,1.1	c-0.1,0.2-0.3,0.6-0.9,0.6H58.5z M73.5,77c-2.4,0-4.3-2-4.3-4.3c0-2.4,1.9-4.3,4.3-4.3s4.4,2,4.4,4.3C77.8,75.1,75.9,77,73.5,77	L73.5,77z M58.9,28.9c-1,0-1.8-0.8-1.8-1.8v-4.9c0-1,0.8-1.8,1.8-1.8c1,0,1.8,0.8,1.8,1.8v4.9C60.6,28.1,59.8,28.9,58.9,28.9	L58.9,28.9z M67.4,30.4c-0.5,0-0.9-0.2-1.2-0.5c-0.7-0.7-0.7-1.8,0-2.5l3.1-3.1c0.7-0.7,1.8-0.7,2.5,0c0.7,0.7,0.7,1.8,0,2.5	l-3.1,3.1C68.3,30.2,67.8,30.4,67.4,30.4L67.4,30.4z M51.2,30.4c-0.5,0-0.9-0.2-1.2-0.5l-3.1-3.1c-0.7-0.7-0.7-1.8,0-2.5	c0.7-0.7,1.8-0.7,2.5,0l3.1,3.1c0.7,0.7,0.7,1.8,0,2.5C52.1,30.2,51.6,30.4,51.2,30.4L51.2,30.4z M51.2,30.4" class="st0"/></svg>