<svg xmlns="http://www.w3.org/2000/svg" xmlns:xlink="http://www.w3.org/1999/xlink" id="Capa_1" x="0" y="0" enable-background="new 0 0 101 101" version="1.1" viewBox="0 0 101 101" xml:space="preserve"><style type="text/css">.st0{fill:#fff}.st31{fill:#1bafa5}</style><circle cx="50.1" cy="50.2" r="50.2" class="st0"/><g><path d="M51.9,20.8c0.1,1.6,0.1,3.3,0.2,4.9h-3.2c0.1-1.6,0.1-3.3,0.2-4.9h-7.8c-5.2,19.8-10.4,39.6-15.6,59.4h21 c0.1-1.6,0.1-3.3,0.2-4.9h7.2c0.1,1.6,0.1,3.3,0.2,4.9h21c-5.2-19.8-10.4-39.6-15.6-59.4H51.9z M48.6,33.1c1.3,0,2.5,0,3.8,0 c0.2,4.6,0.4,9.1,0.6,13.7h-4.9C48.2,42.2,48.4,37.7,48.6,33.1L48.6,33.1z M47.2,67.9c0.2-4.6,0.4-9.1,0.6-13.7c1.8,0,3.7,0,5.5,0 c0.2,4.6,0.4,9.1,0.6,13.7H47.2z M47.2,67.9" class="st31"/><path d="M64.8,20.8h-2.6C68.7,40.6,75.4,60.4,82,80.2h7.2C81,60.4,72.9,40.6,64.8,20.8L64.8,20.8z M64.8,20.8" class="st31"/><path d="M36.2,20.8C28.1,40.6,20,60.4,11.9,80.2H19c6.6-19.8,13.2-39.6,19.8-59.4H36.2z M36.2,20.8" class="st31"/></g></svg>