<svg xmlns="http://www.w3.org/2000/svg" xmlns:xlink="http://www.w3.org/1999/xlink" id="Capa_1" x="0" y="0" enable-background="new 0 0 101 101" version="1.1" viewBox="0 0 101 101" xml:space="preserve"><style type="text/css">.st0{fill:#fff}</style><path d="M82.5,32.6c0-17.6-14.3-31.9-32-31.9c-17.6,0-32,14.3-32,31.9c0,15.2,23.8,55.9,30.3,66.8	c0.3,0.6,1,0.9,1.6,0.9c0.7,0,1.3-0.4,1.6-0.9C58.7,88.6,82.5,47.9,82.5,32.6L82.5,32.6z M50.5,57.3c-13.6,0-24.7-11.1-24.7-24.7	S36.9,7.9,50.5,7.9c13.6,0,24.7,11.1,24.7,24.7S64.1,57.3,50.5,57.3L50.5,57.3z M50.5,57.3" class="st0"/></svg>