<svg xmlns="http://www.w3.org/2000/svg" xmlns:xlink="http://www.w3.org/1999/xlink" id="Capa_1" x="0" y="0" enable-background="new 0 0 101 101" version="1.1" viewBox="0 0 101 101" xml:space="preserve"><style type="text/css">.st0{fill:#fff}.st34{fill:#443c86}</style><circle cx="50.5" cy="50.5" r="50.2" class="st0"/><g><path d="M66.4,31.5C62.7,25.4,56.6,21,49.1,20c-13.4-1.9-24.6,8.2-27.8,21.9c-4,17.4,0.5,23.4,8.9,23.7 c1.6-1.4,3.5-2.5,5.6-3.1L66.4,31.5z M41.6,30.4c0.5-3.3,3.5-5.6,6.8-5.1c3.3,0.5,5.6,3.5,5.1,6.8c-0.5,3.3-3.5,5.6-6.8,5.1 C43.5,36.7,41.2,33.7,41.6,30.4L41.6,30.4z M29.2,36.9c0.3-2.4,2.6-4.1,5-3.8c2.4,0.3,4.1,2.6,3.8,5c-0.3,2.4-2.6,4.1-5,3.8 C30.6,41.6,28.9,39.3,29.2,36.9L29.2,36.9z M30.5,56.9c-2.4-0.3-4.1-2.6-3.8-5c0.3-2.4,2.6-4.1,5-3.8c2.4,0.3,4.1,2.6,3.8,5 C35.2,55.5,32.9,57.2,30.5,56.9L30.5,56.9z M30.5,56.9" class="st34"/><path d="M55.9,60.1l0.6-0.8l22.6-29.4c0-0.5-0.3-1.2-1.2-1.9c-1.7-1.5-2.8-0.8-2.8-0.8L48.9,52.5l-0.7,0.6L55.9,60.1z M55.9,60.1" class="st34"/><path d="M46.8,70.1l0.6-0.7l7.1-7.9l-7.7-6.9l-7,7.8l-0.7,0.7L46.8,70.1z M42.6,62.1l3.5-4c0.3-0.4,0.9-0.4,1.3-0.1 l0.5,0.4c0.2,0.2,0.3,0.4,0.3,0.6c0,0.2-0.1,0.5-0.2,0.6l-3.5,4c-0.3,0.4-0.9,0.4-1.2,0.1l-0.5-0.4c-0.2-0.2-0.3-0.4-0.3-0.6 C42.4,62.5,42.5,62.3,42.6,62.1L42.6,62.1z M42.6,62.1" class="st34"/><path d="M44.7,72.2L44.7,72.2c0,0,0.4-0.6,0.5-0.8L38,65c-0.2,0-0.3,0.1-0.5,0.1c0,0,0,0,0,0 c-5.8,1.4-11.5,7.6-5.8,14.6c0.3,0.3,0.7,0.5,1.1,0.4c0.4-0.1,0.7-0.4,0.8-0.8c0.2-0.9,0.5-1.9,1.3-2.7 C36.7,74.9,41.6,77.5,44.7,72.2L44.7,72.2z M37.7,74c-1.4,0.1-2.9,0.1-4.1,1.2c-0.2,0.2-0.4,0.4-0.6,0.7c-0.2,0.3-0.5,0.4-0.9,0.3 c-0.3-0.1-0.6-0.3-0.7-0.6c-0.3-1-0.4-2.1-0.1-3.2c0.2-0.6,0.5-1.2,0.9-1.8c1.5,1.6,2.7,2.5,5.1,2.3c1.5-0.1,2.8-0.1,4.1,0.3 C40.3,73.9,39.1,73.9,37.7,74L37.7,74z M37.7,74" class="st34"/></g></svg>