<svg xmlns="http://www.w3.org/2000/svg" xmlns:xlink="http://www.w3.org/1999/xlink" id="Capa_1" x="0" y="0" enable-background="new 0 0 101 101" version="1.1" viewBox="0 0 101 101" xml:space="preserve"><style type="text/css">.st0{fill:#fff}</style><g><path d="M89,95.1V5.9c0-2.9-2.3-5.2-5.2-5.2H17.2C14.3,0.7,12,3,12,5.9v89.3c0,2.9,2.3,5.2,5.2,5.2h66.7 C86.7,100.3,89,98,89,95.1L89,95.1z M33.2,88.4c0,1.4-1.2,2.6-2.6,2.6h-6c-1.4,0-2.6-1.2-2.6-2.6v-6c0-1.4,1.2-2.6,2.6-2.6h6 c1.4,0,2.6,1.2,2.6,2.6V88.4z M33.2,73c0,1.4-1.2,2.6-2.6,2.6h-6c-1.4,0-2.6-1.2-2.6-2.6v-6c0-1.4,1.2-2.6,2.6-2.6h6 c1.4,0,2.6,1.2,2.6,2.6V73z M33.2,57.7c0,1.4-1.2,2.6-2.6,2.6h-6c-1.4,0-2.6-1.2-2.6-2.6v-6c0-1.4,1.2-2.6,2.6-2.6h6 c1.4,0,2.6,1.2,2.6,2.6V57.7z M33.2,42.3c0,1.4-1.2,2.6-2.6,2.6h-6c-1.4,0-2.6-1.2-2.6-2.6v-6c0-1.4,1.2-2.6,2.6-2.6h6 c1.4,0,2.6,1.2,2.6,2.6V42.3z M48.5,88.4c0,1.4-1.2,2.6-2.6,2.6h-6c-1.4,0-2.6-1.2-2.6-2.6v-6c0-1.4,1.2-2.6,2.6-2.6h6 c1.4,0,2.6,1.2,2.6,2.6V88.4z M48.5,73c0,1.4-1.2,2.6-2.6,2.6h-6c-1.4,0-2.6-1.2-2.6-2.6v-6c0-1.4,1.2-2.6,2.6-2.6h6 c1.4,0,2.6,1.2,2.6,2.6V73z M48.5,57.7c0,1.4-1.2,2.6-2.6,2.6h-6c-1.4,0-2.6-1.2-2.6-2.6v-6c0-1.4,1.2-2.6,2.6-2.6h6 c1.4,0,2.6,1.2,2.6,2.6V57.7z M48.5,42.3c0,1.4-1.2,2.6-2.6,2.6h-6c-1.4,0-2.6-1.2-2.6-2.6v-6c0-1.4,1.2-2.6,2.6-2.6h6 c1.4,0,2.6,1.2,2.6,2.6V42.3z M63.7,88.4c0,1.4-1.2,2.6-2.6,2.6h-6c-1.4,0-2.6-1.2-2.6-2.6v-6c0-1.4,1.2-2.6,2.6-2.6h6 c1.4,0,2.6,1.2,2.6,2.6L63.7,88.4L63.7,88.4z M63.7,73c0,1.4-1.2,2.6-2.6,2.6h-6c-1.4,0-2.6-1.2-2.6-2.6v-6c0-1.4,1.2-2.6,2.6-2.6 h6c1.4,0,2.6,1.2,2.6,2.6L63.7,73L63.7,73z M63.7,57.7c0,1.4-1.2,2.6-2.6,2.6h-6c-1.4,0-2.6-1.2-2.6-2.6v-6c0-1.4,1.2-2.6,2.6-2.6 h6c1.4,0,2.6,1.2,2.6,2.6L63.7,57.7L63.7,57.7z M63.7,42.3c0,1.4-1.2,2.6-2.6,2.6h-6c-1.4,0-2.6-1.2-2.6-2.6v-6 c0-1.4,1.2-2.6,2.6-2.6h6c1.4,0,2.6,1.2,2.6,2.6L63.7,42.3L63.7,42.3z M79,88.4c0,1.4-1.2,2.6-2.6,2.6h-6c-1.4,0-2.6-1.2-2.6-2.6 V67.1c0-1.4,1.2-2.6,2.6-2.6h6c1.4,0,2.6,1.2,2.6,2.6V88.4z M79,57.7c0,1.4-1.2,2.6-2.6,2.6h-6c-1.4,0-2.6-1.2-2.6-2.6v-6 c0-1.4,1.2-2.6,2.6-2.6h6c1.4,0,2.6,1.2,2.6,2.6V57.7z M79,42.3c0,1.4-1.2,2.6-2.6,2.6h-6c-1.4,0-2.6-1.2-2.6-2.6v-6 c0-1.4,1.2-2.6,2.6-2.6h6c1.4,0,2.6,1.2,2.6,2.6V42.3z M79,21.5c0,1.4-1.2,2.6-2.6,2.6H24.6c-1.4,0-2.6-1.2-2.6-2.6v-9 c0-1.4,1.2-2.6,2.6-2.6h51.8c1.4,0,2.6,1.2,2.6,2.6V21.5z M79,21.5" class="st0"/></g></svg>