<svg xmlns="http://www.w3.org/2000/svg" xmlns:xlink="http://www.w3.org/1999/xlink" id="Capa_1" x="0" y="0" enable-background="new 0 0 101 101" version="1.1" viewBox="0 0 101 101" xml:space="preserve"><style type="text/css">.st0{fill:#fff}</style><g><path d="M66.6,25c0,8.6-6.9,15.5-15.5,15.5c-8.5,0-15.5-6.9-15.5-15.5c0-8.6,6.9-15.5,15.5-15.5 C59.7,9.5,66.6,16.4,66.6,25L66.6,25z M66.6,25" class="st0"/><path d="M96.8,20.7c-3.4-2.9-8.5-2.5-11.4,0.9L62.6,48.6c-2.9-3-7-4.9-11.5-4.9c-4.9,0-9.2,2.2-12.1,5.6L15.6,21.7 c-2.9-3.4-8-3.8-11.4-0.9c-3.4,2.9-3.8,8-0.9,11.4L33.7,68c0.4,0.5,0.8,0.8,1.3,1.2v22.3h32.4V68.1c0,0,0,0,0.1-0.1l30.4-35.9 C100.7,28.7,100.2,23.6,96.8,20.7L96.8,20.7z M62.1,63.8" class="st0"/></g></svg>