<svg xmlns="http://www.w3.org/2000/svg" xmlns:xlink="http://www.w3.org/1999/xlink" id="Capa_1" x="0" y="0" enable-background="new 0 0 101 101" version="1.1" viewBox="0 0 101 101" xml:space="preserve"><style type="text/css">.st0{fill:#fff}.st35{fill:#92278f}</style><circle cx="50.5" cy="50.5" r="50.2" class="st0"/><g><path d="M82.2,44.3v-4.3l-0.3-1.2c-0.1-0.1-1.5-2.7-4.4-5.2c-2.2-2-5.3-4-9.3-4.8v-7.9C50.8,22,49,35.6,49,35.6v0.1 c0,0,0,0-0.1,0c-0.6-0.7-1.4-1.5-2.3-2.3c-2.9-2.6-7.3-5.2-13.2-5.2c-5.9,0-10.3,2.7-13.1,5.3c-2.8,2.6-4.2,5.1-4.3,5.3l-0.3,1.2 v4.3h-2.2v36h71.5v-36H82.2z M26.5,72.9c1.9-1.1,4.2-2,7-2c2.8,0,5.2,0.8,7.1,2H26.5z M46.6,71.3c-2.9-2.5-7.3-5.1-13.1-5.1h0 c-5.7,0-10,2.5-12.8,5V40.6c0.5-0.8,1.6-2.3,3.2-3.7c2.3-2,5.4-3.8,9.6-3.8c4.3,0,7.6,1.9,10,4c1.2,1,2,2.1,2.6,2.8 c0.2,0.3,0.4,0.5,0.5,0.7V71.3z M64.3,25v36.2c0,0-6.5-1.2-12.8,4.5v-28C51.5,37.7,53.8,27.1,64.3,25L64.3,25z M57.2,72.9 c1.9-1.1,4.3-2,7.1-2c2.8,0,5.2,0.8,7.1,2H57.2z M77.3,71.3c-2.9-2.5-7.3-5.1-13.1-5.1c-5.7,0-10,2.5-12.8,5V71 c5.4-7.4,16.8-5.4,16.8-5.4V33.7c2.5,0.7,4.5,2,6,3.4c1.1,1,2,2.1,2.6,2.8c0.2,0.3,0.4,0.5,0.5,0.7V71.3z M77.3,71.3" class="st35"/></g></svg>