<svg xmlns="http://www.w3.org/2000/svg" xmlns:xlink="http://www.w3.org/1999/xlink" id="Capa_1" x="0" y="0" enable-background="new 0 0 101 101" version="1.1" viewBox="0 0 101 101" xml:space="preserve"><style type="text/css">.st0{fill:#fff}</style><g><g><path d="M69.4,61.7c-2.1,0-3.8,1.7-3.8,3.8c0,2.1,1.7,3.8,3.8,3.8c2.1,0,3.8-1.7,3.8-3.8 C73.2,63.4,71.5,61.7,69.4,61.7L69.4,61.7z" class="st0"/><path d="M14.8,61.7c-2.1,0-3.8,1.7-3.8,3.8c0,2.1,1.7,3.8,3.8,3.8c2.1,0,3.8-1.7,3.8-3.8 C18.5,63.4,16.8,61.7,14.8,61.7L14.8,61.7z" class="st0"/><path d="M58.1,54.8c-3.1,0-5.7,2.6-5.7,5.7c0,3.1,2.6,5.7,5.7,5.7c3.1,0,5.7-2.6,5.7-5.7 C63.7,57.3,61.2,54.8,58.1,54.8L58.1,54.8z" class="st0"/><path d="M75.6,89.2h-6.4V77.3c0-2-0.6-3.9-1.6-5.6c0.6-0.2,1.2-0.3,1.8-0.3c3.4,0,6.2,2.8,6.2,6.3V89.2z" class="st0"/><path d="M26.1,54.8c-3.1,0-5.7,2.6-5.7,5.7c0,3.1,2.5,5.7,5.7,5.7c3.1,0,5.7-2.6,5.7-5.7 C31.7,57.3,29.2,54.8,26.1,54.8L26.1,54.8z" class="st0"/><path d="M14.8,71.5c0.6,0,1.2,0.1,1.8,0.3c-1,1.7-1.6,3.6-1.6,5.6v11.9H8.5V77.7C8.5,74.2,11.3,71.5,14.8,71.5 L14.8,71.5z" class="st0"/><path d="M42.1,43.5c-4.6,0-8.4,3.7-8.4,8.4c0,4.6,3.7,8.4,8.4,8.4c4.6,0,8.4-3.8,8.4-8.4 C50.4,47.2,46.7,43.5,42.1,43.5L42.1,43.5z" class="st0"/><path d="M67.1,93.6h-9.9V75.5c0-2.5-0.7-4.8-1.7-6.9c0.8-0.2,1.6-0.4,2.5-0.4c5,0,9,4.1,9,9.1V93.6z" class="st0"/><path d="M26.9,75.5v18.1H17V77.3c0-5,4-9.1,9-9.1c0.9,0,1.7,0.2,2.5,0.4C27.5,70.8,26.9,73.1,26.9,75.5L26.9,75.5z" class="st0"/><path d="M29,98.8h26.2V75.5c0-7.2-5.9-13.1-13.1-13.1c-7.2,0-13.1,5.9-13.1,13.1V98.8z" class="st0"/></g><path d="M83,2.2H49.9c-5.3,0-9.6,4.3-9.5,9.5v15.7c0,5.2,4.3,9.5,9.5,9.5h3.4v12.5l12.5-12.5H83c5.2,0,9.5-4.3,9.5-9.5 V11.7C92.5,6.5,88.2,2.2,83,2.2z M89.1,27.4c0,3.4-2.7,6.1-6.1,6.1H64.4l-7.6,7.6v-7.6h-6.8c-3.4,0-6.1-2.8-6.1-6.1V11.7 c0-3.4,2.8-6.1,6.1-6.1H83c3.4,0,6.1,2.7,6.1,6.1V27.4z" class="st0"/></g></svg>