<svg xmlns="http://www.w3.org/2000/svg" xmlns:xlink="http://www.w3.org/1999/xlink" id="Capa_1" x="0" y="0" enable-background="new 0 0 101 101" version="1.1" viewBox="0 0 101 101" xml:space="preserve"><style type="text/css">.st0{fill:#fff}</style><g><path d="M24.7,25h4.5c1.6,0,3-1.1,3-2.4V3.4c0-1.3-1.3-2.4-3-2.4h-4.5c-1.7,0-3,1.1-3,2.4v19.2 C21.7,23.9,23.1,25,24.7,25L24.7,25z M24.7,25" class="st0"/><path d="M71.8,25h4.5c1.7,0,3-1.1,3-2.4V3.4c0-1.3-1.3-2.4-3-2.4h-4.5c-1.7,0-3,1.1-3,2.4v19.2 C68.7,23.9,70.1,25,71.8,25L71.8,25z M71.8,25" class="st0"/><path d="M94.7,10.2H82.8v14.7c0,3.3-3,6-6.6,6h-4.5c-3.6,0-6.6-2.7-6.6-6V10.2H35.8v14.7c0,3.3-3,6-6.6,6h-4.5 c-3.6,0-6.6-2.7-6.6-6V10.2H6.2c-2,0-3.6,1.6-3.6,3.6v82.5c0,2,1.6,3.6,2.2,3.6h88.5c3.3,0,5-1.6,5-3.6V13.8 C98.3,11.9,96.7,10.2,94.7,10.2L94.7,10.2z M92.8,91.8c0,3.6-3.1,3.3-3.1,3.3H57.4c0,0,19.8-9.9,35.4-23.9V91.8z M93.5,61.2 c-1.3,5.4-4.3,11.5-9.8,7.5c-7.9-5.9-15.8-10.9-16.8,0.9C66,79.6,47.6,93.2,43.6,96h-35c-0.6,0-1.1-0.5-1.1-1.1V44 c0-0.7,0.5-1.1,1.1-1.1h83.7c0.6,0,1.1,0.5,1.1,1.1L93.5,61.2L93.5,61.2z M93.5,61.2" class="st0"/><rect width="14" height="14" x="21.7" y="51.7" class="st0"/><rect width="14" height="14" x="44.7" y="51.7" class="st0"/><rect width="14" height="14" x="21.7" y="72.9" class="st0"/><path d="M44.7,86.9h4c3-2.8,7.4-7.4,9.9-10.5v-3.5H44.7V86.9z M44.7,86.9" class="st0"/><path d="M67,58.3c1.4-1.4,3.1-1.8,4.6-1.8c2.9,0,6,1.6,9.3,3.8v-8.6H67V58.3z M67,58.3" class="st0"/></g></svg>