<svg xmlns="http://www.w3.org/2000/svg" xmlns:xlink="http://www.w3.org/1999/xlink" id="Capa_1" x="0" y="0" enable-background="new 0 0 101 101" version="1.1" viewBox="0 0 101 101" xml:space="preserve"><style type="text/css">.st0{fill:#fff}</style><g><path d="M94.1,13.1H6.9c-3.4,0-6.2,2.8-6.2,6.2v62.2c0,3.4,2.8,6.2,6.2,6.2h87.1c3.4,0,6.2-2.8,6.2-6.2V19.4 C100.3,15.9,97.5,13.1,94.1,13.1L94.1,13.1z M6.9,37.1l23.9,16.3L6.9,77.2V37.1z M11.3,81.6L36,56.9l14.5,9.8l14.4-9.9l24.8,24.8 H11.3z M94.1,77.2l-24-24l24-16.5V77.2z M94.1,29.4l-0.1-0.2L50.5,59.2L6.9,29.6V19.4h87.1V29.4z M94.1,29.4" class="st0"/></g></svg>