<svg xmlns="http://www.w3.org/2000/svg" xmlns:xlink="http://www.w3.org/1999/xlink" id="Capa_1" x="0" y="0" enable-background="new 0 0 101 101" version="1.1" viewBox="0 0 101 101" xml:space="preserve"><style type="text/css">.st0{fill:#fff}</style><g><path d="M78.8,65.3l-9.9-37.1l-0.7-2.5c-0.7-2.7-3.5-4.4-6.3-3.6c-2.2,0.6-3.7,2.5-3.8,4.7L4.3,56 c-0.6-0.6-1.5-0.9-2.4-0.6c-1.4,0.4-2.2,1.8-1.8,3.1l1,3.7l2,7.4l1,3.7c0.4,1.4,1.8,2.2,3.1,1.8c0.9-0.2,1.5-0.9,1.8-1.8l4.1-0.1 c1.1,6.4,6.7,11.3,13.5,11.3c1.2,0,2.4-0.2,3.6-0.5c2.3-0.6,4.4-1.8,6.1-3.6c2.2-2.2,3.5-5,3.9-8l30.1-0.8c1.2,1.8,3.4,2.8,5.6,2.2 c2.7-0.7,4.4-3.5,3.6-6.3L78.8,65.3z M32.6,77c-1.6,1.6-3.8,2.5-6.1,2.5c-4,0-7.3-2.7-8.3-6.4l16.7-0.4 C34.6,74.4,33.8,75.8,32.6,77L32.6,77z M12.8,63.1l47.9-26l6.6,24.5L12.8,63.1z M12.8,63.1" class="st0"/><path d="M86.4,46l12.4-3.3c1.4-0.4,2.2-1.8,1.8-3.1c-0.4-1.4-1.8-2.2-3.1-1.8l-12.4,3.3c-1.4,0.4-2.2,1.8-1.8,3.1 C83.6,45.6,85,46.4,86.4,46L86.4,46z M86.4,46" class="st0"/><path d="M99.1,62.2l-12.4-3.3c-1.4-0.4-2.8,0.4-3.1,1.8c-0.4,1.4,0.4,2.8,1.8,3.1l12.4,3.3c0.5,0.1,0.9,0.1,1.3,0 c0.9-0.2,1.6-0.9,1.8-1.8C101.3,64,100.5,62.5,99.1,62.2L99.1,62.2z M99.1,62.2" class="st0"/><path d="M77.8,30.4c0.4-0.1,0.8-0.3,1.1-0.7l9.1-9.1c1-1,1-2.6,0-3.6c-1-1-2.6-1-3.6,0l-9.1,9.1c-1,1-1,2.6,0,3.6 C76,30.4,76.9,30.6,77.8,30.4L77.8,30.4z M77.8,30.4" class="st0"/></g></svg>