<svg xmlns="http://www.w3.org/2000/svg" xmlns:xlink="http://www.w3.org/1999/xlink" id="Capa_1" x="0" y="0" enable-background="new 0 0 101 101" version="1.1" viewBox="0 0 101 101" xml:space="preserve"><style type="text/css">.st0{fill:#fff}.st32{fill:#287daa}</style><circle cx="50.5" cy="50.5" r="50.2" class="st0"/><g><path d="M34.9,53.6l6.2-12.2l4.5,13.4l6.9-22.1l5.4,26.9l4.8-5.9l14.6,0c3.7-5,5.7-9.9,5.7-15.1 c0-10-7.8-17.7-17.9-17.7c-5.5,0-11,2.6-14.6,6.8c-3.6-4.2-9.1-6.8-14.6-6.8C25.8,20.8,18,28.5,18,38.5c0,4.1,1.3,8,3.6,11.9h-6.7 v3.2H34.9z M34.9,53.6" class="st32"/><path d="M86.1,56.8H63.4l-6.5,8l-5.2-19.1l-6.1,15.9l-4.9-12.8l-3.9,8H26.3c4.8,5.7,11.5,11.6,19.6,18.7l4.5,4.5 l4.5-4.5c6.6-5.8,12.2-10.8,16.7-15.5h14.4V56.8z M86.1,56.8" class="st32"/></g></svg>