<svg xmlns="http://www.w3.org/2000/svg" xmlns:xlink="http://www.w3.org/1999/xlink" id="Capa_1" x="0" y="0" enable-background="new 0 0 101 101" version="1.1" viewBox="0 0 101 101" xml:space="preserve"><style type="text/css">.st0{fill:#fff}.st34{fill:#443c86}</style><circle cx="50.5" cy="50.5" r="50.2" class="st34"/><g><path d="M54.9,23.8c0,1.9-1.5,3.4-3.4,3.4c-1.9,0-3.4-1.5-3.4-3.4c0-1.9,1.5-3.4,3.4-3.4 C53.4,20.4,54.9,21.9,54.9,23.8L54.9,23.8z M54.9,23.8" class="st0"/><path d="M38.7,24.9l8.3,8.5l0,23.5c0,1.1,0.9,1.9,1.9,1.9c1.1,0,1.9-0.9,1.9-1.9l0-15.7h0.9v15.7l0,0 c0,1.1,0.9,1.9,1.9,1.9c1.1,0,1.9-0.9,1.9-1.9l0-23.5l8.3-8.5c0,0,0,0,0,0c0.6-0.6,0.6-1.5,0-2c-0.6-0.5-1.5-0.5-2,0l0,0l-5.3,5.4 H46.1l-5.4-5.4h0c-0.6-0.6-1.5-0.6-2,0C38.2,23.4,38.2,24.3,38.7,24.9C38.7,24.9,38.7,24.9,38.7,24.9L38.7,24.9z M38.7,24.9" class="st0"/><path d="M36.9,31.9c0,1.9-1.5,3.4-3.4,3.4c-1.9,0-3.4-1.5-3.4-3.4c0-1.9,1.5-3.4,3.4-3.4C35.4,28.5,36.9,30,36.9,31.9 L36.9,31.9z M36.9,31.9" class="st0"/><path d="M36.8,36.4H30c-4.9,0.1-4.7,3.7-4.7,3.7v8.3h0c0,0,0,0,0,0.1c0,0.8,0.6,1.4,1.4,1.4c0.8,0,1.4-0.7,1.4-1.4 v-7.8H29L29,65c0,1.1,0.9,1.9,1.9,1.9c1.1,0,1.9-0.9,1.9-1.9l0-15.7h0.9V65l0,0c0,1,0.9,1.9,1.9,1.9c1.1,0,1.9-0.9,1.9-1.9l0-24.4 h0.9v7.8c0,0.8,0.6,1.4,1.4,1.4c0.8,0,1.4-0.6,1.4-1.4v-8.4C41.1,36.3,36.8,36.4,36.8,36.4L36.8,36.4z M36.8,36.4" class="st0"/><path d="M71.3,34c0,1.9-1.5,3.4-3.4,3.4c-1.9,0-3.4-1.5-3.4-3.4c0-1.9,1.5-3.4,3.4-3.4C69.7,30.6,71.3,32.1,71.3,34 L71.3,34z M71.3,34" class="st0"/><path d="M71.1,38.5h-6.8c-4.9,0.1-4.7,3.7-4.7,3.7v8.3h0c0,0,0,0,0,0.1c0,0.8,0.6,1.4,1.4,1.4s1.4-0.6,1.4-1.4 c0,0,0,0,0-0.1v-7.7h0.9l0,24.3c0,1.1,0.9,1.9,1.9,1.9c1.1,0,1.9-0.9,1.9-1.9V51.4h0.9v15.7l0,0c0,1,0.9,1.9,1.9,1.9 c1.1,0,1.9-0.9,1.9-1.9l0-24.4h0.9v7.8c0,0.8,0.6,1.4,1.4,1.4c0.8,0,1.4-0.6,1.4-1.4v-8.4C75.4,38.4,71.1,38.5,71.1,38.5L71.1,38.5 z M71.1,38.5" class="st0"/><path d="M44.5,80.6h13V59.6h-13V80.6z M50.7,68.1h0.7v6.3h-0.8v-5.5h0l-1.1,0.6l-0.2-0.7L50.7,68.1z M50.7,68.1" class="st0"/><path d="M61.2,80.6h12.9V70.1H61.2V80.6z M66.2,77.9c0.3,0.2,0.8,0.4,1.4,0.4c1.1,0,1.4-0.7,1.4-1.2 c0-0.9-0.8-1.3-1.6-1.3h-0.5v-0.6h0.5c0.6,0,1.4-0.3,1.4-1.1c0-0.5-0.3-1-1.1-1c-0.5,0-1,0.2-1.3,0.4l-0.2-0.6 c0.3-0.2,1-0.5,1.7-0.5c1.2,0,1.8,0.7,1.8,1.5c0,0.6-0.4,1.2-1.2,1.5v0c0.8,0.2,1.4,0.7,1.4,1.6c0,1-0.8,1.9-2.3,1.9 c-0.7,0-1.3-0.2-1.6-0.4L66.2,77.9z M66.2,77.9" class="st0"/><path d="M26.9,80.6h12.9V67.7H26.9V80.6z M31.3,77.2l0.7-0.7c1.6-1.5,2.3-2.3,2.3-3.3c0-0.6-0.3-1.2-1.2-1.2 c-0.6,0-1.1,0.3-1.3,0.5l-0.3-0.6c0.4-0.4,1.1-0.6,1.8-0.6c1.4,0,1.9,0.9,1.9,1.8c0,1.2-0.8,2.1-2.2,3.4L32.5,77v0h2.8v0.7h-4V77.2 z M31.3,77.2" class="st0"/></g></svg>