<svg xmlns="http://www.w3.org/2000/svg" xmlns:xlink="http://www.w3.org/1999/xlink" id="Capa_1" x="0" y="0" enable-background="new 0 0 101 101" version="1.1" viewBox="0 0 101 101" xml:space="preserve"><style type="text/css">.st0{fill:#fff}.st31{fill:#1bafa5}</style><circle cx="50.5" cy="50.5" r="50.2" class="st0"/><g><path d="M50.5,32.7L23.7,54.8c0,0,0,0.1,0,0.1c0,0.1,0,0.1,0,0.1v22.4c0,0.8,0.3,1.5,0.9,2.1c0.6,0.6,1.3,0.9,2.1,0.9 h17.9V62.5h11.9v17.9h17.9c0.8,0,1.5-0.3,2.1-0.9c0.6-0.6,0.9-1.3,0.9-2.1V55c0-0.1,0-0.2,0-0.3L50.5,32.7z M50.5,32.7" class="st31"/><path d="M87.6,49.7l-10.2-8.5v-19c0-0.4-0.1-0.8-0.4-1.1c-0.3-0.3-0.6-0.4-1.1-0.4h-9c-0.4,0-0.8,0.1-1.1,0.4 c-0.3,0.3-0.4,0.6-0.4,1.1v9.1L54,21.8c-1-0.8-2.2-1.2-3.5-1.2c-1.4,0-2.6,0.4-3.5,1.2L13.4,49.7c-0.3,0.2-0.5,0.6-0.5,1 c0,0.4,0.1,0.8,0.3,1.1l2.9,3.5c0.2,0.3,0.6,0.5,1,0.5c0.4,0,0.7-0.1,1.1-0.3l32.3-26.9l32.3,26.9c0.2,0.2,0.6,0.3,1,0.3h0.1 c0.4-0.1,0.7-0.2,1-0.5l2.9-3.5c0.2-0.3,0.4-0.7,0.3-1.1C88.1,50.3,87.9,50,87.6,49.7L87.6,49.7z M87.6,49.7" class="st31"/></g></svg>