<svg xmlns="http://www.w3.org/2000/svg" xmlns:xlink="http://www.w3.org/1999/xlink" id="Capa_1" x="0" y="0" enable-background="new 0 0 101 101" version="1.1" viewBox="0 0 101 101" xml:space="preserve"><style type="text/css">.st0{fill:#fff}.st35{fill:#92278f}</style><circle cx="51.3" cy="50.5" r="50.2" class="st35"/><g><path d="M84.3,44.1v-4.5L84,38.4c-0.1-0.2-1.6-2.7-4.6-5.4c-2.3-2-5.5-4.1-9.5-5v-8.2C52,21.1,50.1,35.2,50.1,35.2v0.1 c0,0,0,0-0.1,0c-0.6-0.7-1.4-1.6-2.3-2.4c-3-2.6-7.5-5.4-13.6-5.4c-6.1,0-10.6,2.8-13.5,5.4c-2.9,2.7-4.3,5.3-4.4,5.4l-0.3,1.2v4.5 h-2.2v37.1h73.7V44.1H84.3z M26.8,73.6c2-1.2,4.4-2,7.3-2c2.9,0,5.3,0.8,7.3,2H26.8z M47.6,71.9c-3-2.6-7.5-5.3-13.5-5.3h0 c-5.9,0-10.3,2.6-13.2,5.2V40.3c0.5-0.8,1.6-2.3,3.3-3.8c2.3-2,5.6-3.9,9.9-3.9c4.5,0,7.9,2,10.3,4.1c1.2,1.1,2.1,2.1,2.7,2.9 c0.2,0.3,0.4,0.5,0.5,0.7V71.9z M65.8,24.2v37.4c0,0-6.7-1.2-13.2,4.6V37.3C52.7,37.3,55.1,26.3,65.8,24.2L65.8,24.2z M58.6,73.6 c2-1.2,4.4-2,7.3-2c2.9,0,5.3,0.8,7.3,2H58.6z M79.3,71.9c-3-2.6-7.5-5.3-13.5-5.3c-5.9,0-10.3,2.6-13.2,5.2v-0.2 C58.2,64,69.9,66,69.9,66V33.2c2.5,0.8,4.6,2.1,6.2,3.6c1.2,1.1,2.1,2.1,2.7,2.9c0.2,0.3,0.4,0.5,0.5,0.7V71.9z M79.3,71.9" class="st0"/></g></svg>