<svg xmlns="http://www.w3.org/2000/svg" xmlns:xlink="http://www.w3.org/1999/xlink" id="Capa_1" x="0" y="0" enable-background="new 0 0 101 101" version="1.1" viewBox="0 0 101 101" xml:space="preserve"><style type="text/css">.st0{fill:#fff}</style><path id="XMLID_65_" d="M81.3,80.8c0,2.6,0,4.6,0,6.6c0,10.1,0,10-10.2,11.6c-7.9,1.2-15.8,2-23.7,0.1	c-9.9-2.3-14.3-8-14.3-18.1c0-11.5-0.2-23.1,0.1-34.6c0.1-3.5-1.1-4.2-4.3-4.2c-8.9,0.1-8.7-0.1-9.1-8.9c-0.2-3.5,1-5,3.9-6.5	c8.7-4.6,14.5-11.8,16.2-21.5c0.7-3.7,1.8-4.7,5.4-4.6c8.3,0.2,8.3,0,8.3,8.2c0,4.6,0.1,9.2-0.1,13.7c-0.1,2.5,0.8,3.2,3.2,3.2	c6.3-0.1,12.5,0.1,18.8-0.1c2.9-0.1,3.7,0.9,3.8,3.8c0.4,12.5,0.5,12.5-12.2,12.5c-4.2,0-9.8-1.4-12.3,0.8c-3,2.5-0.9,8.3-1,12.6	c-0.2,5.4-0.1,10.8,0,16.3C54,81.6,60,86.4,69.6,84.4C73.3,83.6,77,82.1,81.3,80.8z" class="st0"/></svg>