<svg xmlns="http://www.w3.org/2000/svg" xmlns:xlink="http://www.w3.org/1999/xlink" id="Capa_1" x="0" y="0" enable-background="new 0 0 101 101" version="1.1" viewBox="0 0 101 101" xml:space="preserve"><style type="text/css">.st0{fill:#fff}.st31{fill:#1bafa5}</style><circle cx="50.5" cy="50.2" r="50.2" class="st31"/><g><path d="M52.3,20.8c0.1,1.6,0.1,3.3,0.2,4.9h-3.2c0.1-1.6,0.1-3.3,0.2-4.9h-7.8c-5.2,19.8-10.4,39.6-15.6,59.4h21 c0.1-1.6,0.1-3.3,0.2-4.9h7.2c0.1,1.6,0.1,3.3,0.2,4.9h21c-5.2-19.8-10.4-39.6-15.6-59.4H52.3z M49,33.1c1.3,0,2.5,0,3.8,0 c0.2,4.6,0.4,9.1,0.6,13.7h-4.9C48.7,42.2,48.9,37.7,49,33.1L49,33.1z M47.6,67.9c0.2-4.6,0.4-9.1,0.6-13.7c1.8,0,3.7,0,5.5,0 c0.2,4.6,0.4,9.1,0.6,13.7H47.6z M47.6,67.9" class="st0"/><path d="M65.2,20.8h-2.6c6.6,19.8,13.2,39.6,19.8,59.4h7.2C81.4,60.4,73.3,40.6,65.2,20.8L65.2,20.8z M65.2,20.8" class="st0"/><path d="M36.6,20.8c-8.1,19.8-16.2,39.6-24.3,59.4h7.2c6.6-19.8,13.2-39.6,19.8-59.4H36.6z M36.6,20.8" class="st0"/></g></svg>