<svg xmlns="http://www.w3.org/2000/svg" xmlns:xlink="http://www.w3.org/1999/xlink" id="Capa_1" x="0" y="0" enable-background="new 0 0 101 101" version="1.1" viewBox="0 0 101 101" xml:space="preserve"><style type="text/css">.st0{fill:#fff}</style><path id="XMLID_70_" d="M58.3,77.6c0,6.4-0.2,12.7,0.1,19.1c0.2,3.4-1,4.2-4.2,4c-3.6-0.3-7.2-0.3-10.8,0	c-3.1,0.2-3.9-1-3.9-3.9c0.1-12.7,0-25.5,0.1-38.2c0-2.7-0.5-3.9-3.5-3.7c-3,0.3-6.1,0-9.1,0.1c-1.9,0.1-2.5-0.7-2.5-2.5	c0.1-4.3,0.1-8.7,0-13c-0.1-2.2,0.9-2.8,2.9-2.6c0.1,0,0.3,0,0.4,0c3.8-0.3,9.1,1.7,11.2-0.9c1.9-2.4,0.5-7.5,0.6-11.4	c0.1-12,5.5-20.7,15.1-23.2c6.6-1.7,13.5-0.5,20.3-0.7c1.7-0.1,1.6,1.2,1.6,2.4c0,3.9-0.1,7.8,0,11.7c0.1,1.9-0.6,2.6-2.5,2.5	c-2.9-0.1-5.8-0.1-8.7,0c-4.3,0.2-6.6,2.4-7.1,6.7C56.8,37,56.8,37,70,37c0.1,0,0.3,0,0.4,0c6.4,0.2,5.7-1.4,5,5.8	c-0.3,2.9-1.1,5.7-1.2,8.6c-0.1,3.2-1.6,3.7-4.3,3.6c-3.7-0.2-8.8-1.3-10.9,0.6c-2.5,2.2-0.6,7.3-0.8,11.2	C58.2,70.3,58.3,73.9,58.3,77.6z" class="st0"/></svg>