<svg xmlns="http://www.w3.org/2000/svg" xmlns:xlink="http://www.w3.org/1999/xlink" id="Capa_1" x="0" y="0" enable-background="new 0 0 101 101" version="1.1" viewBox="0 0 101 101" xml:space="preserve"><style type="text/css">.st0{fill:#fff}.st26{fill:#f15a29}</style><circle cx="50.5" cy="50.5" r="50.2" class="st26"/><g><path d="M71.5,28.4c0,3.9-3.2,7.1-7.1,7.1c-3.9,0-7.1-3.2-7.1-7.1s3.2-7.1,7.1-7.1C68.4,21.3,71.5,24.5,71.5,28.4 L71.5,28.4z M71.5,28.4" class="st0"/><path d="M49.7,66.1v-1.8c0-1.4,0.7-2.8,1.8-3.7v-6H45c-2.6,0-4.6-2-4.6-4.6c0-0.4,0.2-0.8,0.2-1.1v-1.6h0.8 c0.8-1.2,2.2-1.8,3.6-1.8h6c0.1-0.3,0.2-0.4,0.2-0.6V28.5c0-1.4-1.3-2.6-2.6-2.6H28.3c-1.4,0-2.4,1.2-2.4,2.6v16.4 c0,1.4,1,2.5,2.4,2.5h8.3v2.1h-2.8c-1.2,0-2.2,0.9-2.2,2.4h-9.5c-0.6,0-1.1,0.4-1.1,1v2.6c0,0.6,0.4,1,1.1,1h3.2v23.2h26.9V69.3 C52.2,69.3,49.7,68.8,49.7,66.1L49.7,66.1z M31.9,43.7c-1.4,0-2.6-1-2.6-2.3V32c0-1.4,1.2-2.4,2.6-2.4h13.2c1.4,0,2.5,1,2.5,2.4 v9.3c0,1.4-1.1,2.3-2.5,2.3H31.9z M31.9,43.7" class="st0"/><path d="M69.2,36.7h-9.4c-5.8,0-6.2,5.8-6.2,5.8s-0.8,3.9-1.4,4.4c-0.2,0.1-0.4,0.2-0.7,0.2H45c-1.5,0-2.8,1.2-2.8,2.8 c0,1.5,1.2,2.7,2.8,2.7h6.5c1,0,1.9,0,2,0l-0.1,6.7h3.7V44.4c0-3,1.9-6.5,5-6.5h11.3C72.2,37,70.7,36.7,69.2,36.7L69.2,36.7z M69.2,36.7" class="st0"/><path d="M76.3,67.2c2,0,3.7-1.7,3.7-3.7v-19c0-2.3-1.9-4.2-4.2-4.2H63c-2.3,0-4.1,1.9-4.1,4.2v16.9h-4.1 c-1.6,0-2.9,1.2-2.9,2.8v1c0,1.1,0.9,2,2,2h8.7v2.4h-1.4c0,0-3.5,0.1-3.5,3.3v4.7c0,1.1,0.8,1.9,1.8,1.9c1.1,0,1.9-0.9,1.9-1.9 l0-4.3h6.4v4.3c0,1.1,0.9,1.9,2,1.9s2-0.9,2-1.9V73c0-3.5-3.7-3.3-3.7-3.3h-1.5v-2.4H76.3z M76.3,67.2" class="st0"/></g></svg>