<svg xmlns="http://www.w3.org/2000/svg" xmlns:xlink="http://www.w3.org/1999/xlink" id="Capa_1" x="0" y="0" enable-background="new 0 0 101 101" version="1.1" viewBox="0 0 101 101" xml:space="preserve"><style type="text/css">.st0{fill:#fff}.st26{fill:#f15a29}</style><circle cx="50.5" cy="50.5" r="50.2" class="st0"/><g><path d="M73.2,77.5H59.6l5.7-36c0.1-0.4-0.1-0.9-0.3-1.2c-0.3-0.3-0.7-0.5-1.2-0.5h-2.5v-4c0-2.6-2.4-4.8-5.3-4.8h-1 c0.8-1.1,1.3-2.5,1.3-4c0-3.6-2.6-6.4-5.7-6.4c-3.2,0-5.7,2.9-5.7,6.4c0,1.5,0.5,2.9,1.3,4h-1c-2.9,0-5.3,2.1-5.3,4.8v4h-2.8 c-0.4,0-0.9,0.2-1.2,0.5c-0.3,0.3-0.4,0.8-0.3,1.2l5.9,36H27.8c-0.8,0-1.5,0.7-1.5,1.5c0,0.8,0.7,1.5,1.5,1.5h45.3 c0.8,0,1.5-0.7,1.5-1.5C74.7,78.1,74,77.5,73.2,77.5L73.2,77.5z M46.3,46.1h8.3c0.8,0,1.5,0.7,1.5,1.5c0,0.8-0.7,1.5-1.5,1.5h-8.3 c-0.8,0-1.5-0.7-1.5-1.5C44.8,46.8,45.5,46.1,46.3,46.1L46.3,46.1z M56.6,54.4H44.4c-0.8,0-1.5-0.7-1.5-1.5c0-0.8,0.7-1.5,1.5-1.5 h12.1c0.8,0,1.5,0.7,1.5,1.5C58.1,53.8,57.4,54.4,56.6,54.4L56.6,54.4z M56.6,54.4" class="st26"/></g></svg>